<svg width="100" height="16" viewBox="0 0 100 16" fill="none" xmlns="http://www.w3.org/2000/svg">
<path d="M5.88 15H0.62V0.38H5.74C7.18 0.38 8.44667 0.693333 9.54 1.32C10.6333 1.93333 11.4867 2.79333 12.1 3.9C12.7267 4.99333 13.04 6.26667 13.04 7.72C13.04 9.14667 12.7333 10.4133 12.12 11.52C11.52 12.6133 10.68 13.4667 9.6 14.08C8.53333 14.6933 7.29333 15 5.88 15ZM3.18 1.56V13.84L1.96 12.64H5.64C6.61333 12.64 7.45333 12.44 8.16 12.04C8.86667 11.64 9.40667 11.0733 9.78 10.34C10.1533 9.60667 10.34 8.73333 10.34 7.72C10.34 6.68 10.1467 5.79333 9.76 5.06C9.37333 4.31333 8.82 3.74 8.1 3.34C7.38 2.94 6.51333 2.74 5.5 2.74H1.96L3.18 1.56ZM18.0047 15.26C16.9647 15.26 16.138 14.98 15.5247 14.42C14.9247 13.8467 14.6247 13.1 14.6247 12.18C14.6247 11.2733 14.938 10.5533 15.5647 10.02C16.2047 9.47333 17.1114 9.15333 18.2847 9.06L21.2447 8.82V8.6C21.2447 8.14667 21.158 7.78667 20.9847 7.52C20.8247 7.24 20.5914 7.04 20.2847 6.92C19.978 6.78667 19.618 6.72 19.2047 6.72C18.4847 6.72 17.9314 6.86667 17.5447 7.16C17.158 7.44 16.9647 7.84 16.9647 8.36H14.8847C14.8847 7.64 15.0647 7.02 15.4247 6.5C15.798 5.96667 16.318 5.55333 16.9847 5.26C17.6647 4.96667 18.4447 4.82 19.3247 4.82C20.218 4.82 20.9847 4.98 21.6247 5.3C22.2647 5.60667 22.758 6.07333 23.1047 6.7C23.4514 7.31333 23.6247 8.08 23.6247 9V15H21.4847L21.3047 13.54C21.0914 14.0467 20.678 14.46 20.0647 14.78C19.4647 15.1 18.778 15.26 18.0047 15.26ZM18.7847 13.42C19.5447 13.42 20.1447 13.2067 20.5847 12.78C21.038 12.3533 21.2647 11.76 21.2647 11V10.48L19.2047 10.64C18.4447 10.7067 17.9047 10.8667 17.5847 11.12C17.2647 11.36 17.1047 11.68 17.1047 12.08C17.1047 12.52 17.2514 12.8533 17.5447 13.08C17.838 13.3067 18.2514 13.42 18.7847 13.42ZM25.2617 12H27.5817C27.5951 12.4267 27.7551 12.7667 28.0617 13.02C28.3684 13.2733 28.7951 13.4 29.3417 13.4C29.9284 13.4 30.3684 13.2933 30.6617 13.08C30.9684 12.8667 31.1217 12.58 31.1217 12.22C31.1217 11.98 31.0417 11.7667 30.8817 11.58C30.7217 11.3933 30.4217 11.2533 29.9817 11.16L28.2017 10.74C27.3084 10.54 26.6417 10.22 26.2017 9.78C25.7751 9.32667 25.5617 8.70667 25.5617 7.92C25.5617 7.28 25.7284 6.72667 26.0617 6.26C26.4084 5.79333 26.8751 5.44 27.4617 5.2C28.0484 4.94667 28.7217 4.82 29.4817 4.82C30.2151 4.82 30.8617 4.95333 31.4217 5.22C31.9817 5.48667 32.4151 5.86 32.7217 6.34C33.0417 6.82 33.2084 7.38 33.2217 8.02H30.9017C30.9017 7.59333 30.7684 7.26 30.5017 7.02C30.2351 6.76667 29.8617 6.64 29.3817 6.64C28.9017 6.64 28.5284 6.74667 28.2617 6.96C27.9951 7.17333 27.8617 7.46 27.8617 7.82C27.8617 8.36667 28.2884 8.74 29.1417 8.94L30.9217 9.36C31.7484 9.54667 32.3684 9.84667 32.7817 10.26C33.2084 10.6733 33.4217 11.26 33.4217 12.02C33.4217 12.6867 33.2484 13.2667 32.9017 13.76C32.5551 14.24 32.0684 14.6133 31.4417 14.88C30.8151 15.1333 30.0951 15.26 29.2817 15.26C28.0551 15.26 27.0751 14.96 26.3417 14.36C25.6217 13.76 25.2617 12.9733 25.2617 12ZM37.7195 15H35.2795V0.12H37.7395V6.4C38.0462 5.92 38.4729 5.54 39.0195 5.26C39.5795 4.96667 40.2195 4.82 40.9395 4.82C42.1529 4.82 43.0729 5.18667 43.6995 5.92C44.3395 6.65333 44.6595 7.65333 44.6595 8.92V15H42.2195V9.5C42.2195 8.94 42.1329 8.48 41.9595 8.12C41.7862 7.76 41.5462 7.49333 41.2395 7.32C40.9329 7.13333 40.5729 7.04 40.1595 7.04C39.6529 7.04 39.2129 7.15333 38.8395 7.38C38.4795 7.59333 38.1995 7.89333 37.9995 8.28C37.8129 8.66667 37.7195 9.10667 37.7195 9.6V15ZM49.3169 15H47.0569V0.12H49.4969V6.56C49.8169 6 50.2835 5.57333 50.8969 5.28C51.5102 4.97333 52.1969 4.82 52.9569 4.82C53.9035 4.82 54.7102 5.04667 55.3769 5.5C56.0569 5.94 56.5769 6.56 56.9369 7.36C57.3102 8.16 57.4969 9.08667 57.4969 10.14C57.4969 11.14 57.3035 12.0267 56.9169 12.8C56.5302 13.5733 55.9835 14.18 55.2769 14.62C54.5702 15.0467 53.7435 15.26 52.7969 15.26C52.0635 15.26 51.3969 15.1 50.7969 14.78C50.2102 14.46 49.7702 14.02 49.4769 13.46L49.3169 15ZM49.5169 10.02C49.5169 10.6067 49.6302 11.1333 49.8569 11.6C50.0835 12.0533 50.4035 12.4067 50.8169 12.66C51.2435 12.9 51.7369 13.02 52.2969 13.02C52.8702 13.02 53.3635 12.8933 53.7769 12.64C54.1902 12.3867 54.5035 12.0333 54.7169 11.58C54.9302 11.1267 55.0369 10.6067 55.0369 10.02C55.0369 9.43333 54.9302 8.91333 54.7169 8.46C54.5035 8.00667 54.1902 7.65333 53.7769 7.4C53.3635 7.13333 52.8702 7 52.2969 7C51.7369 7 51.2435 7.13333 50.8169 7.4C50.4035 7.65333 50.0835 8.00667 49.8569 8.46C49.6302 8.9 49.5169 9.42 49.5169 10.02ZM58.8597 10.04C58.8597 9.01333 59.0864 8.11333 59.5397 7.34C59.993 6.55333 60.6197 5.94 61.4197 5.5C62.2197 5.06 63.1264 4.84 64.1397 4.84C65.1664 4.84 66.073 5.06 66.8597 5.5C67.6597 5.94 68.2864 6.55333 68.7397 7.34C69.193 8.11333 69.4197 9.01333 69.4197 10.04C69.4197 11.0667 69.193 11.9733 68.7397 12.76C68.2864 13.5333 67.6597 14.14 66.8597 14.58C66.073 15.02 65.1664 15.24 64.1397 15.24C63.1264 15.24 62.2197 15.02 61.4197 14.58C60.6197 14.14 59.993 13.5333 59.5397 12.76C59.0864 11.9733 58.8597 11.0667 58.8597 10.04ZM61.2997 10.04C61.2997 10.64 61.4197 11.1667 61.6597 11.62C61.913 12.0733 62.2464 12.4267 62.6597 12.68C63.0864 12.9333 63.5797 13.06 64.1397 13.06C64.6997 13.06 65.193 12.9333 65.6197 12.68C66.0464 12.4267 66.3797 12.0733 66.6197 11.62C66.8597 11.1667 66.9797 10.64 66.9797 10.04C66.9797 9.42667 66.8597 8.9 66.6197 8.46C66.3797 8.00667 66.0464 7.65333 65.6197 7.4C65.193 7.14667 64.6997 7.02 64.1397 7.02C63.5797 7.02 63.0864 7.14667 62.6597 7.4C62.2464 7.65333 61.913 8.00667 61.6597 8.46C61.4197 8.9 61.2997 9.42667 61.2997 10.04ZM74.2938 15.26C73.2538 15.26 72.4271 14.98 71.8138 14.42C71.2138 13.8467 70.9138 13.1 70.9138 12.18C70.9138 11.2733 71.2271 10.5533 71.8538 10.02C72.4938 9.47333 73.4004 9.15333 74.5738 9.06L77.5338 8.82V8.6C77.5338 8.14667 77.4471 7.78667 77.2738 7.52C77.1138 7.24 76.8804 7.04 76.5738 6.92C76.2671 6.78667 75.9071 6.72 75.4938 6.72C74.7738 6.72 74.2204 6.86667 73.8338 7.16C73.4471 7.44 73.2538 7.84 73.2538 8.36H71.1738C71.1738 7.64 71.3538 7.02 71.7138 6.5C72.0871 5.96667 72.6071 5.55333 73.2738 5.26C73.9538 4.96667 74.7338 4.82 75.6138 4.82C76.5071 4.82 77.2738 4.98 77.9138 5.3C78.5538 5.60667 79.0471 6.07333 79.3938 6.7C79.7404 7.31333 79.9138 8.08 79.9138 9V15H77.7738L77.5938 13.54C77.3804 14.0467 76.9671 14.46 76.3538 14.78C75.7538 15.1 75.0671 15.26 74.2938 15.26ZM75.0738 13.42C75.8338 13.42 76.4338 13.2067 76.8738 12.78C77.3271 12.3533 77.5538 11.76 77.5538 11V10.48L75.4938 10.64C74.7338 10.7067 74.1938 10.8667 73.8738 11.12C73.5538 11.36 73.3938 11.68 73.3938 12.08C73.3938 12.52 73.5404 12.8533 73.8338 13.08C74.1271 13.3067 74.5404 13.42 75.0738 13.42ZM88.5108 5.08V7.34H87.6108C86.7174 7.34 86.0174 7.58 85.5108 8.06C85.0041 8.52667 84.7508 9.24 84.7508 10.2V15H82.3108V5.14H84.6108L84.8108 7.18H84.5708C84.7041 6.52667 85.0174 5.99333 85.5108 5.58C86.0041 5.16667 86.6441 4.96 87.4308 4.96C87.6041 4.96 87.7774 4.96667 87.9508 4.98C88.1241 4.99333 88.3108 5.02667 88.5108 5.08ZM93.8903 15.26C92.9303 15.26 92.1036 15.0467 91.4103 14.62C90.7303 14.18 90.197 13.5733 89.8103 12.8C89.437 12.0267 89.2503 11.1267 89.2503 10.1C89.2503 9.07333 89.437 8.16667 89.8103 7.38C90.197 6.58 90.7503 5.95333 91.4703 5.5C92.1903 5.04667 93.0436 4.82 94.0303 4.82C94.7236 4.82 95.357 4.96 95.9303 5.24C96.5036 5.50667 96.9436 5.88667 97.2503 6.38V0.12H99.6703V15H97.4303L97.2703 13.46C96.977 14.02 96.5236 14.46 95.9103 14.78C95.3103 15.1 94.637 15.26 93.8903 15.26ZM94.4303 13.02C95.0036 13.02 95.497 12.9 95.9103 12.66C96.3236 12.4067 96.6436 12.0533 96.8703 11.6C97.1103 11.1333 97.2303 10.6067 97.2303 10.02C97.2303 9.42 97.1103 8.9 96.8703 8.46C96.6436 8.00667 96.3236 7.65333 95.9103 7.4C95.497 7.13333 95.0036 7 94.4303 7C93.8703 7 93.3836 7.13333 92.9703 7.4C92.557 7.65333 92.237 8.00667 92.0103 8.46C91.797 8.91333 91.6903 9.43333 91.6903 10.02C91.6903 10.6067 91.797 11.1267 92.0103 11.58C92.237 12.0333 92.557 12.3867 92.9703 12.64C93.3836 12.8933 93.8703 13.02 94.4303 13.02Z" fill="white"/>
</svg>
