<svg width="91" height="17" viewBox="0 0 91 17" fill="none" xmlns="http://www.w3.org/2000/svg">
<path d="M10.6895 16H0.591797V1.9375H10.6895V3.73438H4.46875V8.08008H9.27344V9.86719H4.46875V14.2031H10.6895V16ZM22.8477 16H19.5469L16.7832 12.0449L13.9609 16H11.6758L15.9238 10.8047L11.6758 4.7207H14.9766L17.6523 8.54883L20.5625 4.7207H22.8477L18.5117 9.7793L22.8477 16ZM28.6289 16H25.3184V6.0293H23.2676V4.7207H25.3184V0.570312H28.6289V4.7207H32.0469V6.0293H28.6289V16ZM43.1699 5.7168L41.3145 8.79297C41.2363 8.53255 41.1354 8.23958 41.0117 7.91406C40.888 7.58854 40.735 7.28581 40.5527 7.00586C40.3704 6.7194 40.1523 6.48177 39.8984 6.29297C39.6445 6.09766 39.3516 6 39.0195 6C38.7135 6 38.4466 6.07812 38.2188 6.23438C37.9974 6.39062 37.8086 6.5957 37.6523 6.84961C37.4961 7.09701 37.3659 7.38021 37.2617 7.69922C37.1641 8.01172 37.0859 8.33073 37.0273 8.65625C36.9753 8.97526 36.9395 9.28451 36.9199 9.58398C36.9004 9.87695 36.8906 10.1309 36.8906 10.3457V16H33.5801V4.7207H34.8496L36.1875 7.34766C36.3698 6.92448 36.5781 6.53711 36.8125 6.18555C37.0469 5.82747 37.3171 5.52148 37.623 5.26758C37.929 5.00716 38.2741 4.80534 38.6582 4.66211C39.0488 4.51888 39.4883 4.44727 39.9766 4.44727C40.2305 4.44727 40.5137 4.47005 40.8262 4.51562C41.1387 4.55469 41.4447 4.6263 41.7441 4.73047C42.0436 4.82812 42.3203 4.95833 42.5742 5.12109C42.8281 5.28385 43.0267 5.48242 43.1699 5.7168ZM55.6797 16H52.3789V14.6523C51.9883 15.1862 51.5163 15.5833 50.9629 15.8438C50.416 16.0977 49.8138 16.2246 49.1562 16.2246C48.2969 16.2246 47.5286 16.0716 46.8516 15.7656C46.1745 15.4596 45.6016 15.043 45.1328 14.5156C44.6641 13.9818 44.306 13.3568 44.0586 12.6406C43.8112 11.9245 43.6875 11.1562 43.6875 10.3359C43.6875 9.51562 43.8112 8.7474 44.0586 8.03125C44.306 7.3151 44.6641 6.69336 45.1328 6.16602C45.6016 5.63216 46.1745 5.21224 46.8516 4.90625C47.5286 4.60026 48.2969 4.44727 49.1562 4.44727C49.5924 4.44727 50.0059 4.51237 50.3965 4.64258C50.7936 4.77279 51.1549 4.95833 51.4805 5.19922C51.8125 5.43359 52.1022 5.72005 52.3496 6.05859C52.6035 6.39062 52.8021 6.76172 52.9453 7.17188L54.4102 4.7207H55.6797V16ZM52.3594 10.3359C52.3594 10.043 52.3431 9.73372 52.3105 9.4082C52.2845 9.08268 52.2357 8.76042 52.1641 8.44141C52.0924 8.1224 51.9915 7.81966 51.8613 7.5332C51.7376 7.24023 51.5749 6.98307 51.373 6.76172C51.1777 6.53385 50.9401 6.35482 50.6602 6.22461C50.3802 6.0944 50.0547 6.0293 49.6836 6.0293C49.3125 6.0293 48.9902 6.09766 48.7168 6.23438C48.4434 6.36458 48.209 6.54362 48.0137 6.77148C47.8184 6.99284 47.6556 7.25 47.5254 7.54297C47.4017 7.83594 47.304 8.14193 47.2324 8.46094C47.1608 8.77995 47.1087 9.10221 47.0762 9.42773C47.0501 9.74674 47.0371 10.0495 47.0371 10.3359C47.0371 10.6224 47.0501 10.9284 47.0762 11.2539C47.1087 11.5794 47.1608 11.9017 47.2324 12.2207C47.304 12.5397 47.4017 12.8457 47.5254 13.1387C47.6556 13.4316 47.8184 13.6921 48.0137 13.9199C48.209 14.1413 48.4434 14.3203 48.7168 14.457C48.9902 14.5872 49.3125 14.6523 49.6836 14.6523C50.0221 14.6523 50.3216 14.584 50.582 14.4473C50.849 14.304 51.0801 14.1152 51.2754 13.8809C51.4772 13.6465 51.6465 13.3796 51.7832 13.0801C51.9199 12.7806 52.0306 12.4714 52.1152 12.1523C52.1999 11.8333 52.2617 11.5176 52.3008 11.2051C52.3398 10.8861 52.3594 10.5964 52.3594 10.3359ZM68.8535 7.51367L67.4277 8.08008C67.1999 7.36393 66.819 6.8138 66.2852 6.42969C65.7513 6.04557 65.11 5.85352 64.3613 5.85352C63.9577 5.85352 63.5964 5.91862 63.2773 6.04883C62.9648 6.17253 62.6882 6.34505 62.4473 6.56641C62.2129 6.78776 62.0111 7.04492 61.8418 7.33789C61.679 7.63086 61.5456 7.94336 61.4414 8.27539C61.3372 8.60742 61.2624 8.95247 61.2168 9.31055C61.1712 9.66211 61.1484 10.0039 61.1484 10.3359C61.1484 10.694 61.168 11.0553 61.207 11.4199C61.2461 11.7845 61.3112 12.1361 61.4023 12.4746C61.5 12.8066 61.627 13.1191 61.7832 13.4121C61.9395 13.6986 62.1348 13.9492 62.3691 14.1641C62.61 14.3789 62.8932 14.5482 63.2188 14.6719C63.5508 14.7956 63.9316 14.8574 64.3613 14.8574C64.7064 14.8574 65.0352 14.8053 65.3477 14.7012C65.6602 14.597 65.9466 14.4505 66.207 14.2617C66.4674 14.0729 66.6986 13.8483 66.9004 13.5879C67.1022 13.3275 67.2617 13.0378 67.3789 12.7188L68.8145 13.2461C68.5996 13.7604 68.3132 14.2064 67.9551 14.584C67.6035 14.9551 67.2031 15.2643 66.7539 15.5117C66.3047 15.7526 65.8229 15.9316 65.3086 16.0488C64.7943 16.166 64.2734 16.2246 63.7461 16.2246C62.8932 16.2246 62.1022 16.0814 61.373 15.7949C60.6439 15.502 60.0124 15.0951 59.4785 14.5742C58.9512 14.0469 58.5378 13.4251 58.2383 12.709C57.9388 11.9863 57.7891 11.1953 57.7891 10.3359C57.7891 9.47005 57.9355 8.67578 58.2285 7.95312C58.528 7.23047 58.9414 6.60872 59.4688 6.08789C59.9961 5.56706 60.6243 5.16341 61.3535 4.87695C62.0827 4.59049 62.8802 4.44727 63.7461 4.44727C64.293 4.44727 64.8268 4.50911 65.3477 4.63281C65.8685 4.75 66.3503 4.93555 66.793 5.18945C67.2422 5.43685 67.6426 5.7526 67.9941 6.13672C68.3522 6.52083 68.6387 6.97982 68.8535 7.51367ZM75.0547 16H71.7441V6.0293H69.6934V4.7207H71.7441V0.570312H75.0547V4.7207H78.4727V6.0293H75.0547V16ZM84.0977 16H80.2207V1.9375H90.3184V3.73438H84.0977V8.08008H88.9023V9.86719H84.0977V16Z" fill="white"/>
</svg>
